{"title":"Voyeur.Cam.Sluts.Emily.B.XXX.mp4","uid":10621566,"size":601355808,"categoryP":"porn","categoryS":"movies","magnet":"?xt=urn:btih:123d8d924bdaeea8cdb8637496c4025658d0a454&amp;dn=Voyeur.Cam.Sluts.Emily.B.XXX.mp4&amp;tr=udp%3A%2F%2Ftracker.openbittorrent.com%3A80&amp;tr=udp%3A%2F%2Fopen.demonii.com%3A1337&amp;tr=udp%3A%2F%2Ftracker.coppersurfer.tk%3A6969&amp;tr=udp%3A%2F%2Fexodus.desync.com%3A6969","seeders":1,"leechers":0,"uploader":"XXXmegathor","files":1,"time":1406171421,"description":"Voyeur.Cam.Sluts.Emily.B.XXX\n\nSCREENIES &lt;a href=&quot;\nhttp://www.xxxtrapics.com/image/RR&quot; rel=&quot;nofollow&quot; target=&quot;_NEW&quot;&gt;\nhttp://www.xxxtrapics.com/image/RR&lt;/a&gt;\n\n\nDuration : 14mn 17s\nBit rate mode : Variable\nBit rate : 3 999 Kbps\nWidth : 1 280 pixels\nHeight : 720 pixels\nDisplay aspect ratio : 16:9\nFrame rate mode : Constant\nFrame rate : 25.000 fps\nStandard : PAL\nColor space : YUV\nChroma subsampling : 4:2:0\nBit depth : 8 bits\nScan type : Progressive\nBits/(Pixel*Frame) : 0.174\nStream size : 409 MiB (98%)\nEncoded date : UTC 2012-05-26 00:24:25\nTagged date : UTC 2012-05-26 00:24:25\n\nAudio\nID : 1\nFormat : AAC\nFormat/Info : Advanced Audio Codec\nFormat profile : LC\nCodec ID : 40\nDuration : 14mn 17s\nBit rate mode : Variable\nBit rate : 96.0 Kbps\nChannel(s) : 2 channels\nChannel positions : Front: L R\nSampling rate : 44.1 KHz\nCompression mode : Lossy\nStream size : 9.82 MiB (2%)\nEncoded date : UTC 2012-05-26 00:24:25\nTagged date : UTC 2012-05-26 00:24:25\n\n\n","torrent":{"xt":"urn:btih:123d8d924bdaeea8cdb8637496c4025658d0a454","amp;dn":"Voyeur.Cam.Sluts.Emily.B.XXX.mp4","amp;tr":["udp%3A%2F%2Ftracker.openbittorrent.com%3A80","udp%3A%2F%2Fopen.demonii.com%3A1337","udp%3A%2F%2Ftracker.coppersurfer.tk%3A6969","udp%3A%2F%2Fexodus.desync.com%3A6969"],"infoHash":"123d8d924bdaeea8cdb8637496c4025658d0a454","infoHashBuffer":{"type":"Buffer","data":[18,61,141,146,75,218,238,168,205,184,99,116,150,196,2,86,88,208,164,84]},"announce":[],"urlList":[]}}